<?xml version="1.0" standalone="no"?><!DOCTYPE svg PUBLIC "-//W3C//DTD SVG 1.1//EN" "http://www.w3.org/Graphics/SVG/1.1/DTD/svg11.dtd"><svg t="1716039157122" class="icon" viewBox="0 0 1024 1024" version="1.1" xmlns="http://www.w3.org/2000/svg" p-id="5358" xmlns:xlink="http://www.w3.org/1999/xlink" width="200" height="200"><path d="M1008.724979 231.660064a15.673762 15.673762 0 0 1 0.608067 4.223446v219.731842a16.037048 16.037048 0 0 1-8.062235 13.919497L816.83116 575.768879v210.51661a16.12447 16.12447 0 0 1-8.031152 13.919497l-385.13102 221.652208a12.704334 12.704334 0 0 1-2.816925 1.152025c-0.35163 0.097135-0.672177 0.35163-1.023807 0.41574a14.851997 14.851997 0 0 1-8.191425 0 6.354595 6.354595 0 0 1-1.248189-0.511904 27.544674 27.544674 0 0 1-2.687735-1.055861L22.73016 800.201101a16.086587 16.086587 0 0 1-8.062235-13.919498V126.897635a15.621309 15.621309 0 0 1 0.608067-4.191391 10.567356 10.567356 0 0 1 0.608068-1.376408 15.239567 15.239567 0 0 1 0.991752-2.464324 5.134575 5.134575 0 0 1 0.991752-1.407491c0.511903-0.672177 0.895588-1.312299 1.407491-1.920366 0.511903-0.415739 1.055861-0.768341 1.567765-1.152026 0.608067-0.511903 1.152025-1.023807 1.760093-1.439546h0.032054L215.167937 2.136978a16.048704 16.048704 0 0 1 15.999165 0l192.59805 110.809105a17.83988 17.83988 0 0 1 1.760093 1.407492c0.511903 0.388541 1.055861 0.768341 1.567765 1.152025 0.543958 0.608067 0.895588 1.248189 1.407491 1.920366a7.034543 7.034543 0 0 1 1.055862 1.407491 12.552803 12.552803 0 0 1 1.023806 2.464325 12.275967 12.275967 0 0 1 0.543958 1.375436 13.836932 13.836932 0 0 1 0.608068 4.191391v411.785934L592.139587 446.336982V235.8194a15.62228 15.62228 0 0 1 0.608067-4.19139c0.128219-0.479849 0.388541-0.895588 0.543958-1.376409a20.919071 20.919071 0 0 1 1.023807-2.525519c0.291406-0.511903 0.768341-0.895588 1.055861-1.407491 0.511903-0.640122 0.895588-1.280244 1.407491-1.824202a8.412894 8.412894 0 0 1 1.567765-1.18408 17.455224 17.455224 0 0 1 1.760093-1.376408h0.032054L792.672624 111.089826a16.048704 16.048704 0 0 1 15.999166 0l192.533941 110.842132c0.672177 0.415739 1.152025 0.895588 1.792147 1.312299 0.511903 0.415739 1.055861 0.768341 1.53571 1.18408 0.543958 0.608067 0.927643 1.248189 1.439546 1.888311a9.763075 9.763075 0 0 1 1.023807 1.407491 11.982618 11.982618 0 0 1 1.023807 2.52552 6.855814 6.855814 0 0 1 0.640122 1.407491zM977.174442 446.336982V263.594285l-160.407391 92.314533v182.742697zM784.705582 777.006148v-182.905884L431.732195 795.596884v184.565928zM46.697339 154.607439v622.398709l352.972416 203.156664V795.596884L215.103828 691.155002c-0.608067-0.415739-1.055861-0.895588-1.695984-1.312299-0.479849-0.415739-1.023807-0.768341-1.503655-1.152025l-0.032055-0.097135a9.389104 9.389104 0 0 1-1.312299-1.663929 9.172492 9.172492 0 0 1-1.18408-1.567765h-0.097135c-0.35163-0.608067-0.543958-1.312299-0.863533-2.015559a14.770403 14.770403 0 0 1-0.768341-1.824202c-0.160273-0.768341-0.256437-1.567765-0.35163-2.428384a11.117142 11.117142 0 0 1-0.256437-1.760092V246.987053l-93.016822-53.629404z m176.470666-120.059305l-160.407391 92.317446 160.407391 92.314533 160.343283-92.314533z m83.451903 576.192388l93.082873-53.597349V154.607439l-160.503556 92.375728V649.524729z m494.116894-467.235654l-160.407392 92.314532 160.407392 92.278593 160.37048-92.314533z m-16.027334 212.435033L624.231167 263.625369v182.742696l160.467616 92.314533z m-369.040548 411.88307l352.845169-201.361603-160.279173-92.278592-352.620786 203.020674z" fill="#FF2D20" p-id="5359"></path></svg>